<?xml version="1.0" encoding="utf-8"?>
<svg version="1.1" viewBox="1173 747 1653 1573" xmlns="http://www.w3.org/2000/svg" preserveAspectRatio="xMidYMid meet">
	<g>
		<path
				style="fill:#e9e9e9; fill-rule:evenodd; clip-rule:evenodd;"
				d="M1905.501,1593.113h305.971l169.167-631.351l57.324-213.93H2216.49H1173.405
        l123.171,213.93h862.587l-111.847,417.421h-510.408l121.572,213.93c201.835,349.592,403.668,699.18,605.509,1048.771l37.63,65.178
        l17.46-65.178l60.842-227.055C2221.781,2140.923,2063.641,1867.019,1905.501,1593.113" />
		<polygon
				style="fill:#e9e9e9; fill-rule:evenodd; clip-rule:evenodd;"
				points="2295.52,2129.281 2405.428,2319.646 2456.433,2129.281
        2488.25,2010.532 2600.097,1593.113 2657.419,1379.183 2769.269,961.761 2826.591,747.831 2605.115,747.831 2547.792,961.761
        2435.941,1379.183 2378.621,1593.113 2266.776,2010.532 2254.152,2057.636" />
	</g>
</svg>
