<?xml version="1.0" encoding="UTF-8"?>
<svg xmlns="http://www.w3.org/2000/svg" version="1.1" viewBox="0 0 4000 4000" width="1024" height="1024">
	<g>
		<g id="Layer_1">
			<g>
				<path fill="#fff" d="M2186.956,2514.006h-428.79l-763.776-1322.91h428.79l368.573,638.39.067-.036,3.89,6.742,391.245,677.815ZM1444.117,1118.22h-449.918l-126.758-219.557h732.489l368.573,638.385,397.705,688.84-130.907,226.731-376.679-652.578-3.957-6.851v-.145l-379.093-656.603-10.515-18.223h-20.937Z" style="fill-rule: evenodd;"/>
				<polygon fill="#ffffff" points="1444.117 1154.663 973.344 1154.663 804.51 862.225 1620.867 862.225 1999.955 1518.83 2408.139 2225.816 2241.744 2514.006 2228.846 2514.006 1827.168 1818.119 1823.211 1811.268 1444.117 1154.663" style="fill-rule: evenodd;"/>
				<path fill="#ffffff" d="M1812.954,2514.006h428.789l953.662-1651.782-189.876,328.871h-428.795l-368.578,638.39-.057-.036-3.895,6.742-391.25,677.815ZM2555.793,1118.22h449.924l126.763-219.557h-732.489l-368.583,638.385-397.694,688.84,130.907,226.731,376.674-652.578,3.952-6.851v-.145l379.093-656.603,10.52-18.223h20.932Z" style="fill-rule: evenodd;"/>
				<polygon fill='#ffffff' points="2555.793 1154.663 3026.571 1154.663 3195.405 862.225 2379.048 862.225 1999.955 1518.83 1591.776 2225.816 1758.166 2514.006 1771.069 2514.006 2172.752 1818.119 2176.705 1811.268 2555.793 1154.663" style="fill-rule: evenodd;"/>
			</g>
		</g>
	</g>
</svg>